<?xml version="1.0" encoding="UTF-8" standalone="no" ?>
<!DOCTYPE svg PUBLIC "-//W3C//DTD SVG 1.1//EN" "http://www.w3.org/Graphics/SVG/1.1/DTD/svg11.dtd">
<svg xmlns="http://www.w3.org/2000/svg" xmlns:xlink="http://www.w3.org/1999/xlink" version="1.1" width="350" height="350" viewBox="0 0 350 350" xml:space="preserve">
<desc>Created with Fabric.js 1.7.22</desc>
<defs>
</defs>
<g id="icon" style="stroke: none; stroke-width: 1; stroke-dasharray: none; stroke-linecap: butt; stroke-linejoin: miter; stroke-miterlimit: 10; fill: none; fill-rule: nonzero; opacity: 1;" transform="translate(-1.9444444444444287 -1.9444444444444287) scale(3.89 3.89)" >
	<path d="M 10.786 37.715 H 3.747 C 1.686 37.715 0 36.029 0 33.968 v -0.124 c 0 -0.929 0.76 -1.689 1.689 -1.689 h 9.096 c 0.929 0 1.689 0.76 1.689 1.689 v 2.181 C 12.475 36.955 11.715 37.715 10.786 37.715 z" style="stroke: none; stroke-width: 1; stroke-dasharray: none; stroke-linecap: butt; stroke-linejoin: miter; stroke-miterlimit: 10; fill: rgb(173,196,229); fill-rule: nonzero; opacity: 1;" transform=" matrix(1 0 0 1 0 0) " stroke-linecap="round" />
	<path d="M 79.214 37.715 h 7.039 c 2.061 0 3.747 -1.686 3.747 -3.747 v -0.124 c 0 -0.929 -0.76 -1.689 -1.689 -1.689 h -9.096 c -0.929 0 -1.689 0.76 -1.689 1.689 v 2.181 C 77.525 36.955 78.285 37.715 79.214 37.715 z" style="stroke: none; stroke-width: 1; stroke-dasharray: none; stroke-linecap: butt; stroke-linejoin: miter; stroke-miterlimit: 10; fill: rgb(173,196,229); fill-rule: nonzero; opacity: 1;" transform=" matrix(1 0 0 1 0 0) " stroke-linecap="round" />
	<path d="M 73.29 13.4 c -18.86 -2.811 -37.72 -2.811 -56.581 0 L 8.237 35.204 h 73.526 L 73.29 13.4 z" style="stroke: none; stroke-width: 1; stroke-dasharray: none; stroke-linecap: butt; stroke-linejoin: miter; stroke-miterlimit: 10; fill: rgb(225,231,241); fill-rule: nonzero; opacity: 1;" transform=" matrix(1 0 0 1 0 0) " stroke-linecap="round" />
	<path d="M 21.701 64.173 v 10.244 c 0 3.024 -2.474 5.498 -5.498 5.498 H 5.498 C 2.474 79.915 0 77.441 0 74.417 V 59.626 L 21.701 64.173 z" style="stroke: none; stroke-width: 1; stroke-dasharray: none; stroke-linecap: butt; stroke-linejoin: miter; stroke-miterlimit: 10; fill: rgb(42,70,111); fill-rule: nonzero; opacity: 1;" transform=" matrix(1 0 0 1 0 0) " stroke-linecap="round" />
	<path d="M 90 59.626 v 14.791 c 0 3.024 -2.474 5.498 -5.498 5.498 H 73.797 c -3.024 0 -5.498 -2.474 -5.498 -5.498 V 64.173 L 90 59.626 z" style="stroke: none; stroke-width: 1; stroke-dasharray: none; stroke-linecap: butt; stroke-linejoin: miter; stroke-miterlimit: 10; fill: rgb(42,70,111); fill-rule: nonzero; opacity: 1;" transform=" matrix(1 0 0 1 0 0) " stroke-linecap="round" />
	<path d="M 71.086 38.204 h -3 c 0 -5.951 -4.842 -10.793 -10.793 -10.793 S 46.5 32.253 46.5 38.204 h -3 c 0 -7.605 6.188 -13.793 13.793 -13.793 S 71.086 30.599 71.086 38.204 z" style="stroke: none; stroke-width: 1; stroke-dasharray: none; stroke-linecap: butt; stroke-linejoin: miter; stroke-miterlimit: 10; fill: rgb(173,196,229); fill-rule: nonzero; opacity: 1;" transform=" matrix(1 0 0 1 0 0) " stroke-linecap="round" />
	<path d="M 45 64.173 h 40.453 c 2.511 0 4.547 -2.036 4.547 -4.547 V 45.612 c 0 -0.857 -0.242 -1.697 -0.699 -2.423 l -3.689 -5.86 c -0.833 -1.322 -2.286 -2.125 -3.848 -2.125 H 45 H 8.237 c -1.563 0 -3.016 0.802 -3.848 2.125 l -3.69 5.86 C 0.242 43.914 0 44.754 0 45.612 v 14.014 c 0 2.511 2.036 4.547 4.547 4.547 H 45 z" style="stroke: none; stroke-width: 1; stroke-dasharray: none; stroke-linecap: butt; stroke-linejoin: miter; stroke-miterlimit: 10; fill: rgb(87,134,204); fill-rule: nonzero; opacity: 1;" transform=" matrix(1 0 0 1 0 0) " stroke-linecap="round" />
	<path d="M 73.29 13.4 c -0.776 -1.998 -2.7 -3.314 -4.844 -3.314 H 45 H 21.553 c -2.144 0 -4.067 1.316 -4.844 3.314 H 73.29 z" style="stroke: none; stroke-width: 1; stroke-dasharray: none; stroke-linecap: butt; stroke-linejoin: miter; stroke-miterlimit: 10; fill: rgb(87,134,204); fill-rule: nonzero; opacity: 1;" transform=" matrix(1 0 0 1 0 0) " stroke-linecap="round" />
	<path d="M 26.003 55.548 H 11.918 c -1.432 0 -2.593 -1.161 -2.593 -2.593 V 47.18 c 0 -1.432 1.161 -2.593 2.593 -2.593 h 14.085 c 1.432 0 2.593 1.161 2.593 2.593 v 5.775 C 28.596 54.388 27.435 55.548 26.003 55.548 z" style="stroke: none; stroke-width: 1; stroke-dasharray: none; stroke-linecap: butt; stroke-linejoin: miter; stroke-miterlimit: 10; fill: rgb(225,231,241); fill-rule: nonzero; opacity: 1;" transform=" matrix(1 0 0 1 0 0) " stroke-linecap="round" />
	<path d="M 78.082 55.548 H 63.997 c -1.432 0 -2.593 -1.161 -2.593 -2.593 V 47.18 c 0 -1.432 1.161 -2.593 2.593 -2.593 h 14.085 c 1.432 0 2.593 1.161 2.593 2.593 v 5.775 C 80.675 54.388 79.514 55.548 78.082 55.548 z" style="stroke: none; stroke-width: 1; stroke-dasharray: none; stroke-linecap: butt; stroke-linejoin: miter; stroke-miterlimit: 10; fill: rgb(225,231,241); fill-rule: nonzero; opacity: 1;" transform=" matrix(1 0 0 1 0 0) " stroke-linecap="round" />
	<path d="M 51.879 51.567 H 38.122 c -0.829 0 -1.5 -0.672 -1.5 -1.5 s 0.671 -1.5 1.5 -1.5 h 13.757 c 0.828 0 1.5 0.672 1.5 1.5 S 52.707 51.567 51.879 51.567 z" style="stroke: none; stroke-width: 1; stroke-dasharray: none; stroke-linecap: butt; stroke-linejoin: miter; stroke-miterlimit: 10; fill: rgb(173,196,229); fill-rule: nonzero; opacity: 1;" transform=" matrix(1 0 0 1 0 0) " stroke-linecap="round" />
</g>
</svg>